PathFileType	4	(X/Y/Z)	SUBJ89_0_static_RCNL2025.trc
DataRate	CameraRate	NumFrames	NumMarkers	Units	OrigDataRate	OrigDataStartFrame	OrigNumFrames
100	100	6	25	mm	100	34	267
Frame#	Time	R_Shoulder			L_Shoulder			C7			J_Notch			R_Elbow			L_Elbow			R_Wrist			L_Wrist			R_Asis			L_Asis			Sacral			Thoracic			Sternum			R_Thigh_Lateral			R_Knee_Lateral			R_Shank_Lateral			R_Ankle_Lateral			R_Heel			R_Toe			L_Thigh_Lateral			L_Knee_Lateral			L_Shank_Lateral			L_Ankle_Lateral			L_Heel			L_Toe		
		X1	Y1	Z1	X2	Y2	Z2	X3	Y3	Z3	X4	Y4	Z4	X5	Y5	Z5	X6	Y6	Z6	X7	Y7	Z7	X8	Y8	Z8	X9	Y9	Z9	X10	Y10	Z10	X11	Y11	Z11	X12	Y12	Z12	X13	Y13	Z13	X14	Y14	Z14	X15	Y15	Z15	X16	Y16	Z16	X17	Y17	Z17	X18	Y18	Z18	X19	Y19	Z19	X20	Y20	Z20	X21	Y21	Z21	X22	Y22	Z22	X23	Y23	Z23	X24	Y24	Z24	X25	Y25	Z25
34	0.33000000	-232.029358	1453.518555	-44.778175	-255.374191	1452.052490	-431.461121	-295.369385	1515.404053	-243.079956	-165.046539	1401.245117	-238.473297	-251.560684	1193.665527	135.050034	-221.461380	1190.475098	-610.926819	-162.787270	969.830688	258.319420	-114.939964	983.529358	-741.051239	-147.753799	1002.182190	-109.706894	-138.988693	1007.247620	-351.036438	-314.687286	1050.119019	-222.955963	-361.952240	1332.308716	-230.599884	-123.942055	1254.351074	-247.767761	-209.649490	619.323792	-37.691658	-227.969818	501.166718	-89.993790	-281.276398	284.098724	-31.870089	-316.960022	74.881897	-95.965378	-352.329742	64.251633	-141.865646	-157.233856	35.850525	-101.073578	-190.720093	577.828369	-446.542816	-205.141083	492.541443	-373.879028	-264.212372	266.563934	-428.645874	-287.888763	67.467484	-366.118988	-325.104584	72.585823	-317.463593	-131.564697	35.937233	-360.084106
35	0.34000000	-231.980316	1453.233398	-44.693520	-255.368469	1452.005981	-431.483978	-295.394684	1515.382324	-243.086807	-165.047058	1401.229614	-238.485001	-251.540939	1192.749634	134.351608	-221.494171	1190.282593	-610.694824	-162.800957	968.617279	256.951088	-114.940975	983.198334	-740.663361	-147.731766	1002.149353	-109.709877	-138.992493	1007.175049	-350.995209	-314.652863	1050.076416	-222.981506	-361.929108	1332.252563	-230.628540	-123.929169	1254.432739	-247.789444	-209.618729	619.324707	-37.627270	-227.841904	501.216522	-89.962029	-281.125153	284.053070	-31.836004	-316.940643	74.844070	-96.002975	-352.264496	64.274277	-141.919739	-157.195358	35.852467	-101.027473	-190.679306	577.845886	-446.568726	-205.088547	492.563721	-373.865204	-264.223755	266.541809	-428.718140	-287.868042	67.417587	-366.132324	-325.155670	72.600029	-317.369507	-131.570618	35.912739	-360.078827
36	0.35000000	-231.950516	1453.057739	-44.576912	-255.470184	1451.976807	-431.447632	-295.442200	1515.406372	-243.039566	-165.013535	1401.331299	-238.460846	-251.527283	1191.819214	133.597000	-221.559265	1190.099365	-610.475464	-162.646233	967.362427	255.530113	-114.904037	982.976868	-740.318787	-147.677536	1002.135498	-109.696678	-138.987747	1007.220154	-350.980560	-314.592865	1049.996094	-222.884491	-361.921204	1332.262573	-230.608887	-124.004311	1254.378174	-247.643539	-209.582626	619.311707	-37.601124	-227.714432	501.180145	-89.917374	-281.118500	284.038849	-31.832008	-316.953979	74.876053	-96.002106	-352.338104	64.249146	-141.876572	-157.163666	35.826981	-101.062958	-190.701309	577.832642	-446.549011	-205.051483	492.546021	-373.868927	-264.206177	266.538635	-428.682434	-287.873474	67.476318	-366.128571	-325.112244	72.604424	-317.384613	-131.580338	35.941540	-360.059418
37	0.36000000	-231.909958	1452.846191	-44.461792	-255.499680	1451.945679	-431.436737	-295.485443	1515.412964	-242.890854	-165.018524	1401.325684	-238.451080	-251.749023	1190.990601	133.074356	-221.704803	1189.939575	-610.247375	-162.705811	966.205963	254.199356	-114.926640	982.721252	-739.861511	-147.683472	1002.164185	-109.604996	-139.064453	1007.209656	-350.929871	-314.701324	1050.111938	-222.808441	-362.037689	1332.249146	-230.517410	-123.974602	1254.447144	-247.741348	-209.574646	619.312805	-37.606796	-227.764191	501.124634	-89.868149	-281.072693	284.030090	-31.851288	-316.958191	74.879234	-95.994415	-352.370087	64.288734	-141.833405	-157.184952	35.851902	-101.027695	-190.741501	577.909607	-446.497711	-204.989517	492.525238	-373.782532	-264.066589	266.605743	-428.632935	-287.884888	67.454941	-366.135345	-325.224823	72.660698	-317.325958	-131.677719	35.966686	-360.061646
38	0.37000000	-231.844788	1452.635376	-44.373821	-255.549164	1451.941162	-431.418579	-295.516968	1515.429932	-242.942017	-165.098434	1401.318359	-238.345596	-251.755127	1190.158936	132.283630	-221.722397	1189.764526	-610.082336	-162.564964	965.063385	252.859070	-114.868610	982.382874	-739.429596	-147.586105	1002.144775	-109.600616	-138.927628	1007.205017	-350.904388	-314.581299	1050.102539	-222.755783	-362.035614	1332.196777	-230.519913	-123.931549	1254.427368	-247.794144	-209.416885	619.305237	-37.575840	-227.625839	501.187500	-89.852150	-281.065704	284.110809	-31.823793	-316.945923	74.872337	-95.979103	-352.308472	64.302528	-141.867783	-157.218842	35.827225	-101.079948	-190.651428	577.885559	-446.509308	-204.882462	492.544220	-373.720825	-263.950470	266.598114	-428.637360	-287.828033	67.450096	-366.179779	-325.064484	72.562881	-317.385315	-131.668762	35.936680	-360.077698
39	0.38000000	-231.807312	1452.443848	-44.248138	-255.632629	1451.890869	-431.474792	-295.521149	1515.329346	-242.841736	-165.230011	1401.336182	-238.389175	-251.991013	1189.344116	131.540054	-221.817062	1189.539307	-609.940308	-162.621658	963.870056	251.635033	-114.801338	982.131744	-738.984711	-147.463013	1002.186401	-109.635437	-138.902725	1007.203125	-350.881561	-314.465240	1050.060303	-222.703049	-362.027863	1332.205933	-230.500610	-123.935623	1254.430908	-247.783783	-209.509308	619.360413	-37.509804	-227.594025	501.174835	-89.811256	-281.089203	284.112671	-31.830042	-316.921753	74.878761	-95.971817	-352.253235	64.299995	-141.898346	-157.186523	35.890156	-101.101768	-190.505585	577.805298	-446.442413	-204.803909	492.523041	-373.743866	-264.029419	266.565552	-428.646515	-287.829041	67.468071	-366.095306	-325.055420	72.637474	-317.389679	-131.719284	35.980125	-360.093475
